<svg xmlns="http://www.w3.org/2000/svg" viewBox="0 0 32 32" width="32" height="32" shape-rendering="crispEdges">
  <rect x="6" y="5" width="20" height="23" fill="#0f172a" opacity="0.4" />
  <rect x="8" y="6" width="16" height="20" fill="#fef08a" />
  <rect x="7" y="7" width="18" height="18" fill="#fef08a" />
  <rect x="7" y="5" width="18" height="2" fill="#d97706" />
  <rect x="7" y="25" width="18" height="2" fill="#d97706" />
  <rect x="5" y="4" width="2" height="4" fill="#78350f" />
  <rect x="25" y="4" width="2" height="4" fill="#78350f" />
  <rect x="5" y="24" width="2" height="4" fill="#78350f" />
  <rect x="25" y="24" width="2" height="4" fill="#78350f" />
  <rect x="23" y="7" width="3" height="3" fill="#ffffff" />
  <rect x="21" y="9" width="3" height="3" fill="#ffffff" />
  <rect x="19" y="11" width="3" height="3" fill="#ffffff" />
  <rect x="17" y="13" width="3" height="3" fill="#ffffff" />
  <rect x="15" y="15" width="3" height="3" fill="#ffffff" />
  <rect x="13" y="17" width="3" height="3" fill="#ffffff" />
  <rect x="11" y="19" width="3" height="3" fill="#facc15" />
  <rect x="9" y="21" width="2" height="2" fill="#e2e8f0" />
  <rect x="24" y="6" width="1" height="1" fill="#475569" />
  <rect x="22" y="8" width="1" height="1" fill="#475569" />
  <rect x="20" y="10" width="1" height="1" fill="#475569" />
  <rect x="18" y="12" width="1" height="1" fill="#475569" />
  <rect x="16" y="14" width="1" height="1" fill="#475569" />
  <rect x="14" y="16" width="1" height="1" fill="#475569" />
  <rect x="24" y="6" width="3" height="1" fill="#b45309" />
  <rect x="25" y="5" width="1" height="3" fill="#b45309" />
  <rect x="26" y="4" width="2" height="2" fill="#facc15" />
</svg>